HIERARCHY
ROOT hip
{
	OFFSET 0.000000 0.000000 0.000000 
	CHANNELS 6 Xposition Yposition Zposition Xrotation Zrotation Yrotation
	JOINT abdomen
	{
		OFFSET 0.000000 3.402643 0.000000 
		CHANNELS 3 Xrotation Zrotation Yrotation
		JOINT chest
		{
			OFFSET 0.000000 8.438565 -0.680529 
			CHANNELS 3 Xrotation Zrotation Yrotation
			JOINT neck
			{
				OFFSET 0.000000 10.207942 -0.272212 
				CHANNELS 3 Xrotation Zrotation Yrotation
				JOINT head
				{
					OFFSET 0.000000 3.130431 0.000000 
					CHANNELS 3 Xrotation Zrotation Yrotation
					End Site
					{
						OFFSET 0.000000 3.130435 0.000000 
					}
				}
			}
			JOINT lCollar
			{
				OFFSET 3.470700 6.669187 -0.816635 
				CHANNELS 3 Yrotation Zrotation Xrotation
				JOINT lShldr
				{
					OFFSET 3.198488 0.000000 0.000000 
					CHANNELS 3 Zrotation Yrotation Xrotation
					JOINT lForeArm
					{
						OFFSET 10.139888 0.000000 0.000000 
						CHANNELS 3 Yrotation Zrotation Xrotation
						JOINT lHand
						{
							OFFSET 8.370511 0.000000 0.000000 
							CHANNELS 3 Zrotation Yrotation Xrotation
							End Site
							{
								OFFSET 4.083176 0.000000 0.000000 
							}
						}
					}
				}
			}
			JOINT rCollar
			{
				OFFSET -3.470700 6.669187 -0.816635 
				CHANNELS 3 Yrotation Zrotation Xrotation
				JOINT rShldr
				{
					OFFSET -3.198488 0.000000 0.000000 
					CHANNELS 3 Zrotation Yrotation Xrotation
					JOINT rForeArm
					{
						OFFSET -10.139888 0.000000 0.000000 
						CHANNELS 3 Yrotation Zrotation Xrotation
						JOINT rHand
						{
							OFFSET -8.370511 0.000000 0.000000 
							CHANNELS 3 Zrotation Yrotation Xrotation
							End Site
							{
								OFFSET -4.083176 0.000000 0.000000 
							}
						}
					}
				}
			}
		}
	}
	JOINT lThigh
	{
		OFFSET 5.308129 -1.633274 1.361059 
		CHANNELS 3 Xrotation Zrotation Yrotation
		JOINT lShin
		{
			OFFSET -2.041588 -20.007561 0.000000 
			CHANNELS 3 Xrotation Zrotation Yrotation
			JOINT lFoot
			{
				OFFSET 0.000000 -19.190928 -1.224953 
				CHANNELS 3 Xrotation Yrotation Zrotation
				End Site
				{
					OFFSET 0.000000 -2.449906 4.627600 
				}
			}
		}
	}
	JOINT rThigh
	{
		OFFSET -5.308129 -1.633274 1.361059 
		CHANNELS 3 Xrotation Zrotation Yrotation
		JOINT rShin
		{
			OFFSET 2.041588 -20.007561 0.000000 
			CHANNELS 3 Xrotation Zrotation Yrotation
			JOINT rFoot
			{
				OFFSET 0.000000 -19.190928 -1.224953 
				CHANNELS 3 Xrotation Yrotation Zrotation
				End Site
				{
					OFFSET 0.000000 -2.449906 4.627600 
				}
			}
		}
	}
}
MOTION
Frames: 16
Frame Time: 0.016667
-1.013293 52.917454 -0.305737 -10.776717 -4.177750 -5.806879 25.837389 -0.055350 0.059796 -2.061369 2.693853 -2.843844 -12.051316 0.518488 -0.098198 2.169910 4.809002 -67.233070 -6.459264 -8.750540 -0.452686 -77.095795 -16.995756 31.375294 -135.281128 5.000000 7.738217 -26.063211 -11.248678 34.043278 8.504492 10.153419 -0.537949 82.010048 27.129753 45.000000 136.409500 -5.000000 17.934916 3.769462 3.082202 31.007303 22.953466 19.724321 14.035774 2.025976 -6.018997 -0.474841 -4.976801 11.459991 -10.959486 18.625469 -9.264658 -7.736530 1.470883 1.985674 0.006593 -3.240569 -7.518326 11.505338 
-1.011404 52.917465 -0.309509 -10.774297 -4.187320 -5.826357 25.827736 -0.023619 0.082572 -2.061047 2.684093 -2.834079 -12.031645 0.431586 -0.085051 2.196726 4.846787 -67.241287 -6.439733 -8.750540 -0.452686 -77.091850 -16.989576 31.346905 -135.290115 5.000000 7.732620 -26.031021 -11.318810 33.937107 8.553226 10.143660 -0.537444 82.017799 27.119310 45.000000 136.426682 -5.000000 17.955652 3.803100 3.028862 30.979326 22.977922 19.726627 14.088227 2.028601 -6.038842 -0.494296 -4.987906 11.493697 -10.923175 18.612753 -9.268112 -7.746215 1.502057 1.986549 0.027780 -3.242586 -7.528436 11.489544 
-1.006126 52.918591 -0.314408 -10.792970 -4.167599 -5.865315 25.827576 -0.023034 0.082325 -2.040550 2.654812 -2.823861 -12.011957 0.365457 -0.065169 2.199916 4.874841 -67.296417 -6.421775 -8.759200 -0.462780 -77.092003 -17.001146 31.354445 -135.290115 5.000000 7.732620 -26.006929 -11.383422 33.832821 8.571120 10.154863 -0.528442 82.014412 27.128872 45.000000 136.433228 -5.000000 17.956511 3.805284 2.993054 30.988176 22.989052 19.683769 14.129880 2.025276 -6.039857 -0.474841 -5.012631 11.472075 -10.919269 18.598688 -9.295167 -7.752988 1.517774 1.974459 0.038606 -3.302873 -7.487676 11.515426 
-0.998586 52.920471 -0.320063 -10.821735 -4.138093 -5.914012 25.817747 -0.035785 0.118414 -2.010609 2.635291 -2.794567 -12.002151 0.326834 -0.059326 2.189279 4.891135 -67.389702 -6.392559 -8.768957 -0.463283 -77.081139 -17.021618 31.398903 -135.281723 5.000000 7.730738 -25.974428 -11.432801 33.747654 8.571397 10.184121 -0.529955 82.002075 27.157480 45.000000 136.443970 -5.000000 17.952135 3.792712 2.964721 31.035448 23.018616 19.634987 14.189601 2.017595 -6.042439 -0.473925 -5.025209 11.375724 -10.907085 18.579319 -9.354327 -7.786606 1.577051 1.965391 0.022366 -3.372933 -7.393169 11.531347 
-0.991046 52.921982 -0.325715 -10.841486 -4.108661 -5.952972 25.807745 -0.056130 0.120383 -1.980347 2.606010 -2.775040 -12.002112 0.288211 -0.053482 2.181632 4.918595 -67.465599 -6.363342 -8.778714 -0.463787 -77.076523 -17.044464 31.431967 -135.273453 5.000000 7.744258 -25.946617 -11.464641 33.670177 8.581347 10.203626 -0.530964 81.987579 27.184942 45.000000 136.449539 -5.000000 17.941530 3.776264 2.950456 31.072771 23.048281 19.586355 14.219131 2.005268 -6.036153 -0.453576 -5.043352 11.382972 -10.891840 18.570004 -9.393601 -7.805647 1.607004 1.966401 0.014228 -3.425363 -7.299351 11.537141 
-0.983512 52.921970 -0.331368 -10.868361 -4.118227 -5.973154 25.798765 -0.040376 0.137885 -1.951495 2.605996 -2.784795 -12.031367 0.239932 -0.046178 2.197568 4.955769 -67.493050 -6.343972 -8.798222 -0.464793 -77.064529 -17.074480 31.474482 -135.273727 5.000000 7.773012 -25.927691 -11.475082 33.637661 8.582898 10.182665 -0.539459 81.974136 27.199509 45.000000 136.432648 -5.000000 17.922804 3.744476 2.992378 31.071829 23.057152 19.576229 14.237617 2.033864 -6.036635 -0.417233 -5.017139 11.306546 -10.927001 18.555979 -9.420615 -7.822365 1.656534 1.975999 0.026669 -3.447191 -7.218126 11.570372 
-0.975979 52.921970 -0.337018 -10.886487 -4.118080 -5.992633 25.799212 -0.026543 0.133241 -1.931963 2.605996 -2.784795 -12.060629 0.191654 -0.038874 2.204407 4.996594 -67.522255 -6.324683 -8.827481 -0.466302 -77.052399 -17.092937 31.509455 -135.263535 5.000000 7.792524 -25.918837 -11.475834 33.617630 8.590837 10.174369 -0.529451 81.957314 27.223635 45.000000 136.421356 -5.000000 17.893484 3.717730 3.042661 31.071131 23.080988 19.548704 14.291568 2.063822 -6.016195 -0.439382 -5.023456 11.277278 -10.938546 18.539150 -9.431220 -7.824218 1.703921 1.974020 0.039110 -3.457672 -7.220203 11.568088 
-0.971456 52.920464 -0.339652 -10.917912 -4.156557 -6.042043 25.819738 0.005121 0.157233 -1.920420 2.606054 -2.745774 -12.089926 0.191654 -0.038874 2.244306 4.998607 -67.512733 -6.313489 -8.838310 -0.457214 -77.056679 -17.122280 31.552902 -135.255264 5.000000 7.806031 -25.934685 -11.496840 33.702477 8.561357 10.154864 -0.528442 81.963852 27.223902 45.000000 136.415375 -5.000000 17.848837 3.747333 3.069789 31.093271 23.123974 19.560740 14.329156 2.095894 -6.046504 -0.451746 -5.047115 11.292447 -10.920551 18.550087 -9.431656 -7.824329 1.743519 1.965163 0.051070 -3.489426 -7.169451 11.567256 
-0.967691 52.918579 -0.341536 -10.959038 -4.195023 -6.090745 25.849768 0.014806 0.182956 -1.918197 2.606125 -2.706762 -12.109457 0.191654 -0.038874 2.273855 4.995152 -67.491989 -6.313489 -8.838310 -0.457214 -77.068352 -17.144442 31.589775 -135.237289 5.000000 7.817186 -25.964895 -11.504228 33.836998 8.522202 10.145112 -0.527938 81.971443 27.235003 45.000000 136.408447 -5.000000 17.792719 3.794228 3.086156 31.126207 23.170050 19.568941 14.408135 2.134769 -6.032884 -0.465037 -5.087254 11.318884 -10.896102 18.554276 -9.423703 -7.821936 1.775153 1.949690 0.062542 -3.504071 -7.142790 11.557339 
-0.963923 52.917446 -0.344170 -10.984423 -4.204426 -6.130417 25.860046 0.032545 0.190483 -1.916864 2.606167 -2.667729 -12.128994 0.201310 -0.040334 2.306246 5.006651 -67.473801 -6.324765 -8.837235 -0.466805 -77.079712 -17.143446 31.611574 -135.229507 5.000000 7.807818 -25.998821 -11.523587 33.967609 8.504305 10.133916 -0.536941 81.954773 27.237555 45.000000 136.401398 -5.000000 17.755455 3.784273 3.126369 31.126518 23.197273 19.568420 14.441952 2.151144 -6.037511 -0.486354 -5.111110 11.379463 -10.846021 18.555979 -9.420616 -7.822365 1.773954 1.937392 0.072313 -3.526049 -7.073973 11.584261 
-0.960154 52.917446 -0.347940 -10.985799 -4.184929 -6.140153 25.839996 0.022492 0.165002 -1.916561 2.596406 -2.648198 -12.148532 0.210965 -0.041795 2.324931 5.046388 -67.452087 -6.354061 -8.837230 -0.466804 -77.079552 -17.131874 31.604036 -135.220093 5.000000 7.770303 -26.063725 -11.559450 34.101860 8.494820 10.163174 -0.538453 81.906090 27.219280 45.000000 136.386017 -5.000000 17.731413 3.691091 3.183152 31.101690 23.184551 19.537630 14.402142 2.171494 -6.030189 -0.488106 -5.093220 11.395834 -10.893791 18.550945 -9.451953 -7.848970 1.795521 1.930594 0.083211 -3.524796 -7.039835 11.599412 
-0.956385 52.917454 -0.351708 -10.987894 -4.165510 -6.139441 25.810194 0.012431 0.139522 -1.926158 2.576870 -2.628658 -12.158312 0.230277 -0.044717 2.343643 5.086198 -67.431305 -6.381769 -8.828558 -0.456711 -77.069359 -17.123362 31.584160 -135.219086 5.000000 7.734685 -26.128891 -11.595099 34.238026 8.493271 10.184121 -0.529955 81.857269 27.200888 45.000000 136.378357 -5.000000 17.706228 3.597860 3.239863 31.077307 23.168930 19.509499 14.391021 2.192691 -6.012204 -0.519087 -5.092692 11.441190 -10.906239 18.541471 -9.471995 -7.903395 1.805319 1.920903 0.113067 -3.518228 -6.999974 11.636393 
-0.952618 52.917454 -0.351708 -11.014717 -4.175066 -6.159631 25.820202 0.005785 0.157812 -1.945554 2.586645 -2.628667 -12.177859 0.249588 -0.047639 2.359879 5.064012 -67.406219 -6.391535 -8.828558 -0.456710 -77.071861 -17.115913 31.598419 -135.207733 5.000000 7.705235 -26.100269 -11.613127 34.269276 8.446178 10.182688 -0.539463 81.834068 27.183641 45.000000 136.374466 -5.000000 17.668406 3.587217 3.223751 31.066542 23.187683 19.519499 14.346019 2.222745 -6.042666 -0.492506 -5.118331 11.478868 -10.876918 18.551790 -9.472245 -7.873611 1.825441 1.902643 0.065363 -3.528455 -6.946170 11.658378 
-0.948852 52.917454 -0.351705 -11.033535 -4.174990 -6.169370 25.839890 -0.001475 0.175775 -1.965085 2.586645 -2.628667 -12.197416 0.278555 -0.052022 2.385985 5.040035 -67.370796 -6.401301 -8.828558 -0.456711 -77.075539 -17.098959 31.611727 -135.195801 5.000000 7.683260 -26.067024 -11.648721 34.294704 8.407210 10.192446 -0.539968 81.814308 27.157934 45.000000 136.382263 -5.000000 17.642998 3.576579 3.207635 31.055775 23.197470 19.509016 14.303821 2.251782 -6.042297 -0.495164 -5.152744 11.558353 -10.830481 18.557688 -9.460334 -7.851476 1.838572 1.876661 0.046812 -3.547334 -6.931539 11.653297 
-0.947344 52.917446 -0.351701 -11.051301 -4.184622 -6.179110 25.839977 0.010511 0.170311 -1.994382 2.586645 -2.628667 -12.216938 0.268900 -0.050561 2.419375 5.051853 -67.333572 -6.401301 -8.828558 -0.456711 -77.057808 -17.086046 31.590912 -135.202621 5.000000 7.655972 -26.078995 -11.630461 34.153889 8.397446 10.192448 -0.539968 81.807747 27.133835 45.000000 136.367630 -5.000000 17.612276 3.553703 3.243908 31.064335 23.218843 19.500360 14.283135 2.268738 -6.035884 -0.487207 -5.188748 11.566614 -10.824040 18.575583 -9.469207 -7.864064 1.841230 1.887908 0.037083 -3.538434 -6.886793 11.661507 
-0.947344 52.917446 -0.351701 -11.080598 -4.184622 -6.179111 25.829817 0.016533 0.151847 -2.013610 2.576884 -2.628668 -12.236453 0.249588 -0.047639 2.458931 5.088594 -67.271271 -6.401380 -8.838310 -0.457214 -77.025024 -17.064341 31.571112 -135.219299 5.000000 7.645351 -26.119764 -11.596990 33.907410 8.416883 10.182692 -0.539463 81.809036 27.100340 45.000000 136.339325 -5.000000 17.562357 3.534838 3.323115 31.084057 23.231174 19.501610 14.284206 2.297436 -6.025015 -0.499598 -5.179038 11.562319 -10.826376 18.597464 -9.470078 -7.864295 1.848679 1.866702 0.047370 -3.522594 -6.918013 11.670606 
